<svg width="120" height="120" viewBox="0 0 120 120" fill="none" xmlns="http://www.w3.org/2000/svg">
<circle cx="60" cy="60" r="60" fill="#F4F6F8"/>
<path d="M85.1811 100.284H29.2586C27.3622 100.282 25.5441 99.5273 24.2031 98.1863C22.8621 96.8454 22.1079 95.0273 22.1057 93.1309V27.4544C22.1079 25.558 22.8621 23.7399 24.2031 22.3989C25.5441 21.058 27.3622 20.3037 29.2586 20.3015H81.2854L92.334 29.108V93.1309C92.3319 95.0273 91.5776 96.8454 90.2366 98.1863C88.8957 99.5273 87.0775 100.282 85.1811 100.284V100.284Z" fill="white"/>
<path d="M73.5129 41.4575H36.013C35.8565 41.4577 35.7015 41.427 35.5568 41.3672C35.4121 41.3074 35.2807 41.2197 35.1699 41.1091C35.0592 40.9985 34.9713 40.8671 34.9114 40.7225C34.8514 40.5779 34.8206 40.4229 34.8206 40.2663C34.8206 40.1098 34.8514 39.9548 34.9114 39.8102C34.9713 39.6656 35.0592 39.5342 35.1699 39.4236C35.2807 39.313 35.4121 39.2253 35.5568 39.1655C35.7015 39.1057 35.8565 39.075 36.013 39.0752H73.5129C73.8288 39.0752 74.1318 39.2007 74.3552 39.4241C74.5785 39.6475 74.704 39.9504 74.704 40.2663C74.704 40.5823 74.5785 40.8852 74.3552 41.1086C74.1318 41.332 73.8288 41.4575 73.5129 41.4575Z" fill="#C4CDD5"/>
<path d="M78.4265 45.4778H36.0132C35.8567 45.4778 35.7019 45.4469 35.5573 45.3871C35.4128 45.3272 35.2815 45.2395 35.1709 45.1289C35.0603 45.0183 34.9726 44.887 34.9127 44.7424C34.8528 44.5979 34.822 44.443 34.822 44.2866C34.822 44.1302 34.8528 43.9753 34.9127 43.8308C34.9726 43.6863 35.0603 43.5549 35.1709 43.4443C35.2815 43.3337 35.4128 43.246 35.5573 43.1861C35.7019 43.1263 35.8567 43.0955 36.0132 43.0955H78.4265C78.5829 43.0955 78.7378 43.1263 78.8823 43.1861C79.0268 43.246 79.1582 43.3337 79.2688 43.4443C79.3794 43.5549 79.4671 43.6863 79.527 43.8308C79.5868 43.9753 79.6177 44.1302 79.6177 44.2866C79.6177 44.443 79.5868 44.5979 79.527 44.7424C79.4671 44.887 79.3794 45.0183 79.2688 45.1289C79.1582 45.2395 79.0268 45.3272 78.8823 45.3871C78.7378 45.4469 78.5829 45.4778 78.4265 45.4778Z" fill="#C4CDD5"/>
<path d="M73.5129 59.4736H36.013C35.8565 59.4738 35.7015 59.4431 35.5568 59.3833C35.4121 59.3235 35.2807 59.2358 35.1699 59.1252C35.0592 59.0146 34.9713 58.8832 34.9114 58.7386C34.8514 58.594 34.8206 58.439 34.8206 58.2825C34.8206 58.1259 34.8514 57.9709 34.9114 57.8263C34.9713 57.6817 35.0592 57.5503 35.1699 57.4397C35.2807 57.3291 35.4121 57.2414 35.5568 57.1816C35.7015 57.1218 35.8565 57.0911 36.013 57.0913H73.5129C73.8288 57.0913 74.1318 57.2168 74.3552 57.4402C74.5785 57.6636 74.704 57.9665 74.704 58.2825C74.704 58.5984 74.5785 58.9013 74.3552 59.1247C74.1318 59.3481 73.8288 59.4736 73.5129 59.4736Z" fill="#00AB55"/>
<path d="M78.4265 63.4936H36.0132C35.8567 63.4936 35.7019 63.4628 35.5573 63.4029C35.4128 63.3431 35.2815 63.2553 35.1709 63.1447C35.0603 63.0341 34.9726 62.9028 34.9127 62.7583C34.8528 62.6138 34.822 62.4589 34.822 62.3025C34.822 62.1461 34.8528 61.9912 34.9127 61.8466C34.9726 61.7021 35.0603 61.5708 35.1709 61.4602C35.2815 61.3496 35.4128 61.2619 35.5573 61.202C35.7019 61.1421 35.8567 61.1113 36.0132 61.1113H78.4265C78.5829 61.1113 78.7378 61.1421 78.8823 61.202C79.0268 61.2619 79.1582 61.3496 79.2688 61.4602C79.3794 61.5708 79.4671 61.7021 79.527 61.8466C79.5868 61.9912 79.6177 62.1461 79.6177 62.3025C79.6177 62.4589 79.5868 62.6138 79.527 62.7583C79.4671 62.9028 79.3794 63.0341 79.2688 63.1447C79.1582 63.2553 79.0268 63.3431 78.8823 63.4029C78.7378 63.4628 78.5829 63.4936 78.4265 63.4936Z" fill="#00AB55"/>
<path d="M73.513 77.4897H36.0132C35.6973 77.4897 35.3943 77.3642 35.1709 77.1408C34.9475 76.9175 34.822 76.6145 34.822 76.2986C34.822 75.9827 34.9475 75.6797 35.1709 75.4563C35.3943 75.2329 35.6973 75.1074 36.0132 75.1074H73.513C73.8289 75.1074 74.1319 75.2329 74.3553 75.4563C74.5787 75.6797 74.7042 75.9827 74.7042 76.2986C74.7042 76.6145 74.5787 76.9175 74.3553 77.1408C74.1319 77.3642 73.8289 77.4897 73.513 77.4897Z" fill="#DFE3E8"/>
<path d="M78.4264 81.5097H36.013C35.8565 81.5099 35.7015 81.4792 35.5568 81.4194C35.4121 81.3597 35.2807 81.2719 35.1699 81.1613C35.0592 81.0507 34.9713 80.9193 34.9114 80.7747C34.8514 80.6301 34.8206 80.4751 34.8206 80.3186C34.8206 80.1621 34.8514 80.007 34.9114 79.8624C34.9713 79.7178 35.0592 79.5865 35.1699 79.4758C35.2807 79.3652 35.4121 79.2775 35.5568 79.2177C35.7015 79.158 35.8565 79.1273 36.013 79.1274H78.4264C78.7423 79.1274 79.0453 79.2529 79.2686 79.4763C79.492 79.6997 79.6175 80.0027 79.6175 80.3186C79.6175 80.6345 79.492 80.9375 79.2686 81.1608C79.0453 81.3842 78.7423 81.5097 78.4264 81.5097Z" fill="#DFE3E8"/>
<path d="M92.1188 29.3912H83.4641C83.1512 29.3912 82.8414 29.3296 82.5524 29.2099C82.2634 29.0902 82.0008 28.9147 81.7795 28.6935C81.5583 28.4723 81.3828 28.2097 81.2631 27.9206C81.1434 27.6316 81.0818 27.3218 81.0818 27.009V20.6167C81.0818 20.5887 81.0897 20.5613 81.1045 20.5376C81.1194 20.5138 81.1407 20.4948 81.1659 20.4826C81.191 20.4704 81.2192 20.4656 81.247 20.4687C81.2748 20.4717 81.3012 20.4826 81.3231 20.5L92.2113 29.1256C92.2355 29.1448 92.2532 29.1711 92.2618 29.2008C92.2704 29.2305 92.2696 29.2621 92.2594 29.2913C92.2493 29.3205 92.2303 29.3458 92.2051 29.3637C92.1799 29.3816 92.1497 29.3912 92.1188 29.3912V29.3912Z" fill="#DFE3E8"/>
<path d="M38.3863 25.95C38.3863 29.3024 37.3922 32.5795 35.5297 35.3669C33.6673 38.1543 31.02 40.3268 27.9228 41.6097C24.8256 42.8927 21.4175 43.2283 18.1296 42.5743C14.8416 41.9203 11.8214 40.306 9.45088 37.9355C7.08038 35.565 5.46604 32.5448 4.81203 29.2568C4.15801 25.9688 4.49367 22.5607 5.77658 19.4635C7.05948 16.3663 9.23201 13.7191 12.0194 11.8566C14.8068 9.9941 18.0839 9 21.4363 9C25.9313 9.00142 30.2418 10.7877 33.4202 13.9661C36.5987 17.1445 38.3849 21.455 38.3863 25.95V25.95Z" fill="#919EAB" fill-opacity="0.24"/>
<path d="M37.7853 25.9495C37.7853 29.1831 36.8264 32.3441 35.0299 35.0328C33.2334 37.7214 30.68 39.817 27.6925 41.0544C24.705 42.2918 21.4177 42.6156 18.2462 41.9848C15.0748 41.3539 12.1616 39.7968 9.87507 37.5103C7.58856 35.2238 6.03143 32.3106 5.40058 29.1391C4.76974 25.9676 5.09351 22.6803 6.33096 19.6929C7.56841 16.7054 9.66395 14.152 12.3526 12.3555C15.0412 10.559 18.2022 9.6001 21.4358 9.6001C25.7716 9.60147 29.9293 11.3244 32.9951 14.3902C36.0609 17.4561 37.7839 21.6138 37.7853 25.9495V25.9495Z" fill="#C8FACD"/>
<mask id="mask0_2969_8347" style="mask-type:alpha" maskUnits="userSpaceOnUse" x="5" y="9" width="33" height="34">
<path d="M37.7853 25.9495C37.7853 29.1831 36.8264 32.3441 35.0299 35.0328C33.2334 37.7214 30.68 39.817 27.6925 41.0544C24.705 42.2918 21.4177 42.6156 18.2462 41.9848C15.0748 41.3539 12.1616 39.7968 9.87507 37.5103C7.58856 35.2238 6.03143 32.3106 5.40058 29.1391C4.76974 25.9676 5.09351 22.6803 6.33096 19.6929C7.56841 16.7054 9.66395 14.152 12.3526 12.3555C15.0412 10.559 18.2022 9.6001 21.4358 9.6001C25.7716 9.60147 29.9293 11.3244 32.9951 14.3902C36.0609 17.4561 37.7839 21.6138 37.7853 25.9495V25.9495Z" fill="white"/>
</mask>
<g mask="url(#mask0_2969_8347)">
<path d="M21.6859 17.657C24.867 17.657 27.4459 20.2358 27.4459 23.417L27.4459 24.0512C28.0297 24.1492 28.4744 24.6568 28.4744 25.2684V26.7084C28.4744 27.3309 28.0135 27.8458 27.4144 27.9305C27.2019 29.9676 25.9275 31.6889 24.1545 32.5312L24.1544 34.4227H24.5659C28.6559 34.4227 31.9716 37.7383 31.9716 41.8284V42.7541H11.4001V41.8284C11.4001 37.7383 14.7158 34.4227 18.8059 34.4227H19.2173L19.2173 32.5312C17.4443 31.689 16.1698 29.9676 15.9572 27.9304C15.3582 27.8458 14.8973 27.3309 14.8973 26.7084V25.2684C14.8973 24.6568 15.3421 24.1491 15.9259 24.0512L15.9259 23.417C15.9259 20.2358 18.5047 17.657 21.6859 17.657Z" fill="#FBCDBE"/>
<path d="M16.6459 35.1784C16.6459 36.8531 18.9254 38.2106 21.7373 38.2106C24.5492 38.2106 26.8287 36.8531 26.8287 35.1784C26.8287 35.0383 26.8128 34.9004 26.7819 34.7653C29.7894 35.7071 31.9716 38.5156 31.9716 41.8337V42.7541H11.4001V41.8337C11.4001 38.4749 13.6361 35.6384 16.7008 34.7314C16.6646 34.8774 16.6459 35.0266 16.6459 35.1784Z" fill="#007B55"/>
<path d="M16.6459 35.1784C16.6459 36.8531 18.9254 38.2106 21.7373 38.2106C24.5492 38.2106 26.8287 36.8531 26.8287 35.1784C26.8287 35.0383 26.8128 34.9004 26.7819 34.7653C29.7894 35.7071 31.9716 38.5156 31.9716 41.8337V42.7541H11.4001V41.8337C11.4001 38.4749 13.6361 35.6384 16.7008 34.7314C16.6646 34.8774 16.6459 35.0266 16.6459 35.1784Z" fill="#5BE584"/>
<path opacity="0.24" d="M19.1143 29.3425C19.2593 30.3323 20.3549 31.1314 21.6857 31.1314C23.0196 31.1314 24.1179 30.3274 24.2571 29.2531C24.2675 29.212 24.234 29.0742 24.0335 29.0742C21.9776 29.0742 20.4246 29.0742 19.3379 29.0742C19.1537 29.0742 19.1009 29.2018 19.1143 29.3425Z" fill="#007B55"/>
<path opacity="0.24" fill-rule="evenodd" clip-rule="evenodd" d="M20.4514 27.3257C20.4514 27.7801 21.004 28.1485 21.6857 28.1485C22.3674 28.1485 22.92 27.7801 22.92 27.3257" fill="#007B55"/>
<path d="M19.0114 26.0912C19.3523 26.0912 19.6286 25.8149 19.6286 25.4741C19.6286 25.1332 19.3523 24.8569 19.0114 24.8569C18.6706 24.8569 18.3943 25.1332 18.3943 25.4741C18.3943 25.8149 18.6706 26.0912 19.0114 26.0912Z" fill="#007B55"/>
<path d="M24.3598 26.0912C24.7007 26.0912 24.977 25.8149 24.977 25.4741C24.977 25.1332 24.7007 24.8569 24.3598 24.8569C24.019 24.8569 23.7427 25.1332 23.7427 25.4741C23.7427 25.8149 24.019 26.0912 24.3598 26.0912Z" fill="#007B55"/>
<path d="M17.5336 24.1534C17.9362 23.5868 19.0402 23.269 19.9911 23.5025C20.1014 23.5296 20.2129 23.4622 20.24 23.3518C20.267 23.2415 20.1996 23.1301 20.0892 23.103C18.9849 22.8318 17.7066 23.1997 17.1982 23.915C17.1324 24.0076 17.1541 24.1361 17.2467 24.2019C17.3393 24.2677 17.4678 24.246 17.5336 24.1534Z" fill="#007B55"/>
<path d="M25.838 24.1534C25.4353 23.5868 24.3314 23.269 23.3805 23.5025C23.2701 23.5296 23.1587 23.4622 23.1316 23.3518C23.1045 23.2415 23.172 23.1301 23.2823 23.103C24.3867 22.8318 25.665 23.1997 26.1734 23.915C26.2392 24.0076 26.2175 24.1361 26.1249 24.2019C26.0323 24.2677 25.9038 24.246 25.838 24.1534Z" fill="#007B55"/>
<path d="M21.6859 16.1143C25.5487 16.1143 28.6802 19.2457 28.6802 23.1085L28.6802 26.2718C28.7702 27.28 28.8544 27.9863 28.9328 28.3907C29.0744 29.1214 29.5185 28.8804 29.5185 29.9198C29.5185 30.9591 29.0733 31.3083 29.0713 32.2325C29.0694 33.1567 30.6551 33.8917 30.6551 35.0649C30.6551 36.2382 29.9274 41.7746 22.671 41.7746C21.1209 41.7746 19.8005 41.3336 18.7098 40.4516C18.7802 41.1192 18.8464 41.8867 18.9087 42.7543H14.0744C14.1703 40.3092 13.3252 38.942 13.3252 36.2172C13.3252 33.4925 14.7279 29.5297 14.6916 28.56C14.6937 28.4995 14.6958 28.4277 14.698 28.3448C14.6937 28.2455 14.6916 28.1459 14.6916 28.0457V23.1085C14.6916 22.7001 14.7266 22.2997 14.7938 21.9104C14.7942 21.8985 14.7943 21.8864 14.7944 21.8743L14.7987 21.8822C15.3785 18.6041 18.2414 16.1143 21.6859 16.1143ZM21.7373 19.4057H21.6344C18.5385 19.4057 16.0287 21.9154 16.0287 25.0114V27.3771C16.0287 30.4731 18.5385 32.9828 21.6344 32.9828H21.7373C24.8332 32.9828 27.343 30.4731 27.343 27.3771V25.0114C27.343 21.9154 24.8332 19.4057 21.7373 19.4057Z" fill="#00AB55"/>
<path fill-rule="evenodd" clip-rule="evenodd" d="M21.6857 17.2456C25.2077 17.2456 28.0629 20.0777 28.0629 23.5713C28.0629 23.9739 28.025 24.3677 27.9525 24.7494C27.7891 21.4298 25.0459 18.7885 21.6857 18.7885C18.3256 18.7885 15.5824 21.4298 15.4191 24.7494C15.3465 24.3677 15.3086 23.9739 15.3086 23.5713C15.3086 20.0777 18.1637 17.2456 21.6857 17.2456Z" fill="#007B55"/>
<path opacity="0.9" fill-rule="evenodd" clip-rule="evenodd" d="M28.4392 35.5016C28.4539 35.5345 28.4674 35.568 28.4799 35.6022C28.9455 36.8814 27.6491 38.5276 25.5843 39.2792C23.5195 40.0307 21.4683 39.6029 21.0027 38.3237C20.9902 38.2895 20.9791 38.255 20.9691 38.2204C21.8118 38.8018 23.4775 38.8295 25.1933 38.205C26.9061 37.5816 28.1629 36.4925 28.4377 35.5068L28.4392 35.5016ZM27.245 33.9234C27.252 33.9493 27.2579 33.9755 27.2626 34.0022C27.4384 34.9994 25.9012 36.1039 23.8291 36.4693C21.757 36.8347 19.9347 36.3225 19.7589 35.3253C19.7542 35.2987 19.7507 35.272 19.7484 35.2452C20.4156 35.7579 21.9596 35.9355 23.6814 35.6319C25.4003 35.3288 26.7886 34.6357 27.2425 33.9271L27.245 33.9234ZM27.4455 25.8341V28.1998C27.4455 31.2958 24.9358 33.8056 21.8398 33.8056H21.5313C18.4353 33.8056 15.9255 31.2958 15.9255 28.1998V25.8341C15.9255 25.4538 15.9634 25.0822 16.0356 24.7231C16.0308 24.8186 16.0284 24.9147 16.0284 25.0113V27.377C16.0284 30.4729 18.5382 32.9827 21.6341 32.9827H21.737C24.8329 32.9827 27.3427 30.4729 27.3427 27.377V25.0113C27.3427 24.9147 27.3402 24.8186 27.3354 24.7232C27.4077 25.0822 27.4455 25.4538 27.4455 25.8341Z" fill="#007B55"/>
</g>
<path d="M117.31 59.5406C117.31 63.1187 116.178 66.605 114.076 69.5007C111.974 72.3964 109.01 74.5529 105.608 75.6616C105.506 75.6939 105.404 75.7263 105.301 75.7571C104.861 75.8927 104.414 76.0083 103.959 76.1069C103.136 76.2854 102.301 76.4013 101.461 76.4536C101.096 76.4782 100.729 76.4906 100.36 76.4906C98.4513 76.4925 96.5564 76.1715 94.7552 75.5414C94.7029 75.5229 94.6505 75.5044 94.5996 75.4859C91.6813 74.4319 89.1082 72.5971 87.1608 70.1815C85.2133 67.7659 83.9663 64.8621 83.5555 61.7865C83.1447 58.711 83.5859 55.5817 84.8311 52.7396C86.0762 49.8976 88.0775 47.4518 90.6169 45.6688C93.1564 43.8858 96.1364 42.834 99.2324 42.628C102.328 42.422 105.422 43.0697 108.175 44.5005C110.928 45.9313 113.236 48.0904 114.847 50.7424C116.457 53.3945 117.309 56.4377 117.31 59.5406V59.5406Z" fill="#919EAB" fill-opacity="0.24"/>
<path d="M116.708 59.5401C116.708 62.9914 115.617 66.3542 113.589 69.1473C111.562 71.9404 108.703 74.0205 105.421 75.0899C105.323 75.1211 105.225 75.1523 105.126 75.182C104.7 75.3128 104.269 75.4243 103.831 75.5194C103.037 75.6916 102.232 75.8034 101.422 75.8538C101.069 75.8776 100.715 75.8895 100.359 75.8895C98.5183 75.8913 96.6906 75.5818 94.9532 74.974C94.9027 74.9561 94.8522 74.9383 94.8031 74.9204C91.9882 73.9038 89.5063 72.134 87.6278 69.804C85.7494 67.4739 84.5465 64.673 84.1503 61.7065C83.754 58.7399 84.1796 55.7215 85.3807 52.9801C86.5817 50.2388 88.5121 47.8797 90.9615 46.1598C93.411 44.44 96.2855 43.4255 99.2718 43.2268C102.258 43.0281 105.242 43.6528 107.897 45.0329C110.553 46.4131 112.779 48.4956 114.333 51.0537C115.886 53.6118 116.708 56.5472 116.708 59.5401V59.5401Z" fill="#C8FACD"/>
<mask id="mask1_2969_8347" style="mask-type:alpha" maskUnits="userSpaceOnUse" x="84" y="43" width="33" height="33">
<path d="M116.708 59.5401C116.708 62.9914 115.617 66.3542 113.589 69.1473C111.562 71.9404 108.703 74.0205 105.421 75.0899C105.323 75.1211 105.225 75.1523 105.126 75.182C104.7 75.3128 104.269 75.4243 103.831 75.5194C103.037 75.6916 102.232 75.8034 101.422 75.8538C101.069 75.8776 100.715 75.8895 100.359 75.8895C98.5183 75.8913 96.6906 75.5818 94.9532 74.974C94.9027 74.9561 94.8522 74.9383 94.8031 74.9204C91.9882 73.9038 89.5063 72.134 87.6278 69.804C85.7494 67.4739 84.5465 64.673 84.1503 61.7065C83.754 58.7399 84.1796 55.7215 85.3807 52.9801C86.5817 50.2388 88.5121 47.8797 90.9615 46.1598C93.411 44.44 96.2855 43.4255 99.2718 43.2268C102.258 43.0281 105.242 43.6528 107.897 45.0329C110.553 46.4131 112.779 48.4956 114.333 51.0537C115.886 53.6118 116.708 56.5472 116.708 59.5401V59.5401Z" fill="white"/>
</mask>
<g mask="url(#mask1_2969_8347)">
<path d="M100.131 51.2571C103.313 51.2571 105.891 53.8359 105.891 57.0171L105.892 57.6513C106.475 57.7493 106.92 58.257 106.92 58.8685V60.3085C106.92 60.931 106.459 61.4459 105.86 61.5306C105.647 63.5677 104.373 65.289 102.6 66.1313L102.6 68.0228H103.011C107.101 68.0228 110.417 71.3384 110.417 75.4285V76.3542H89.8457V75.4285C89.8457 71.3384 93.1614 68.0228 97.2514 68.0228H97.6628L97.6628 66.1314C95.8899 65.2891 94.6154 63.5677 94.4028 61.5306C93.8037 61.4459 93.3428 60.931 93.3428 60.3085V58.8685C93.3428 58.2569 93.7877 57.7492 94.3714 57.6513L94.3714 57.0171C94.3714 53.8359 96.9503 51.2571 100.131 51.2571Z" fill="#FBCDBE"/>
<path d="M103.011 68.0281C107.101 68.0281 110.417 71.3437 110.417 75.4338V76.3542H89.8457V75.4338C89.8457 71.3437 93.1614 68.0281 97.2514 68.0281L97.3741 68.0281C97.361 68.1293 97.3543 68.2322 97.3543 68.3366C97.3543 69.7568 98.5976 70.9081 100.131 70.9081C101.665 70.9081 102.909 69.7568 102.909 68.3366C102.909 68.2322 102.902 68.1293 102.889 68.0281L103.011 68.0281Z" fill="#C8FACD"/>
<path fill-rule="evenodd" clip-rule="evenodd" d="M96.4283 72.0857C96.4283 73.6501 96.63 75.1118 96.9798 76.3544L89.8455 76.3543V75.4339C89.8455 71.4546 92.9839 68.2084 96.9205 68.0354C96.6073 69.2294 96.4283 70.612 96.4283 72.0857ZM110.417 75.4339V76.3543L103.385 76.3544C103.735 75.1118 103.937 73.6501 103.937 72.0857C103.937 70.6142 103.758 69.2335 103.446 68.0407C107.334 68.2659 110.417 71.4898 110.417 75.4339Z" fill="#00AB55"/>
<path fill-rule="evenodd" clip-rule="evenodd" d="M105.171 73.8856L106.154 73.1484C106.302 73.0371 106.507 73.0389 106.653 73.1528L107.331 73.6799L105.171 73.8856Z" fill="#C8FACD"/>
<path fill-rule="evenodd" clip-rule="evenodd" d="M96.9428 67.9199C96.5313 69.9085 96.7028 72.7199 97.4571 76.3542H95.8113L94.3713 72.6514L94.9885 71.7256L94.3713 71.1085L96.3256 68.0228C96.5342 67.9579 96.7399 67.9236 96.9428 67.9199Z" fill="#005249"/>
<path fill-rule="evenodd" clip-rule="evenodd" d="M103.32 67.9199C103.731 69.9085 103.56 72.7199 102.806 76.3542H104.451L105.891 72.6514L105.274 71.7256L105.891 71.1085L103.937 68.0228C103.729 67.9579 103.523 67.9236 103.32 67.9199Z" fill="#005249"/>
<path fill-rule="evenodd" clip-rule="evenodd" d="M102.6 67.2554C103.296 67.7283 103.731 68.3989 103.731 69.1427C103.731 69.904 103.276 70.5886 102.55 71.0629L101.939 70.5815L101.468 70.6156L101.571 70.2915L101.563 70.2852C102.191 69.962 102.6 69.432 102.6 68.833L102.6 67.2554ZM98.6993 70.2852L98.6912 70.2915L98.7941 70.6156L98.323 70.5815L97.712 71.0629C97.0003 70.5975 96.5485 69.9296 96.5317 69.1856L96.5312 69.1427C96.5312 68.3989 96.9661 67.7282 97.6627 67.2554L97.6627 68.833C97.6627 69.432 98.0718 69.962 98.6993 70.2852Z" fill="#5BE584"/>
<path opacity="0.24" fill-rule="evenodd" clip-rule="evenodd" d="M98.6914 62.8799C98.6914 63.6752 99.3361 64.3199 100.131 64.3199C100.927 64.3199 101.571 63.6752 101.571 62.8799" fill="#005249"/>
<path opacity="0.24" fill-rule="evenodd" clip-rule="evenodd" d="M98.897 60.9255C98.897 61.38 99.4496 61.7484 100.131 61.7484C100.813 61.7484 101.366 61.38 101.366 60.9255" fill="#005249"/>
<path fill-rule="evenodd" clip-rule="evenodd" d="M96.0333 59.6452C96.2232 60.0359 96.6509 60.3083 97.148 60.3083C97.6434 60.3083 98.0698 60.0379 98.2607 59.6493C98.3174 59.5339 98.2367 59.4395 98.1553 59.5095C97.9032 59.7262 97.5452 59.8616 97.148 59.8616C96.7633 59.8616 96.4153 59.7345 96.1647 59.5295C96.0731 59.4546 95.9778 59.5309 96.0333 59.6452Z" fill="#005249"/>
<path fill-rule="evenodd" clip-rule="evenodd" d="M101.999 59.6452C102.189 60.0359 102.617 60.3083 103.114 60.3083C103.609 60.3083 104.036 60.0379 104.227 59.6493C104.283 59.5339 104.203 59.4395 104.121 59.5095C103.869 59.7262 103.511 59.8616 103.114 59.8616C102.729 59.8616 102.381 59.7345 102.131 59.5295C102.039 59.4546 101.944 59.5309 101.999 59.6452Z" fill="#005249"/>
<path d="M95.9791 57.7532C96.3818 57.1866 97.4857 56.8689 98.4367 57.1024C98.547 57.1295 98.6584 57.062 98.6855 56.9517C98.7126 56.8413 98.6451 56.7299 98.5348 56.7028C97.4304 56.4316 96.1521 56.7996 95.6438 57.5149C95.5779 57.6075 95.5997 57.7359 95.6923 57.8017C95.7849 57.8675 95.9133 57.8458 95.9791 57.7532Z" fill="#005249"/>
<path d="M104.284 57.7532C103.881 57.1866 102.777 56.8689 101.826 57.1024C101.716 57.1295 101.604 57.062 101.577 56.9517C101.55 56.8413 101.618 56.7299 101.728 56.7028C102.832 56.4316 104.111 56.7996 104.619 57.5149C104.685 57.6075 104.663 57.7359 104.57 57.8017C104.478 57.8675 104.349 57.8458 104.284 57.7532Z" fill="#005249"/>
<path d="M100.183 64.612C99.0127 64.6509 98.4908 65.2168 98.0978 64.6416C97.8028 64.2099 97.9262 63.4839 98.2018 63.0755C98.594 62.4942 99.1261 62.7753 99.721 62.709C99.8827 62.691 100.045 62.6455 100.183 62.5712C100.32 62.6455 100.482 62.691 100.644 62.709C101.239 62.7753 101.771 62.4942 102.163 63.0755C102.439 63.4839 102.562 64.2099 102.267 64.6416C101.874 65.2168 101.353 64.5731 100.183 64.612ZM105.863 57.634C105.514 59.0817 105.355 60.5586 105.102 62.0231C105.05 62.3283 104.992 62.6325 104.931 62.9363C104.918 63.0001 104.905 63.2369 104.843 63.2669C104.655 63.3579 104.272 62.8743 104.169 62.7651C103.912 62.4909 103.656 62.2142 103.343 61.999C102.709 61.5642 101.967 61.3071 101.195 61.2462C100.872 61.2206 100.436 61.2651 100.131 61.4511C99.827 61.2651 99.3902 61.2206 99.0672 61.2462C98.2953 61.3071 97.5534 61.5642 96.9198 61.999C96.6062 62.2142 96.3509 62.4909 96.0934 62.7651C95.9909 62.8743 95.6075 63.3579 95.4194 63.2669C95.3573 63.2369 95.3446 63.0001 95.3318 62.9363C95.2706 62.6325 95.2131 62.3283 95.1605 62.0231C94.9082 60.5586 94.7482 59.0817 94.4002 57.634C94.2989 57.634 94.2101 59.5624 94.1988 59.742C94.1528 60.4718 94.0991 61.1852 94.1677 61.9156C94.286 63.1754 94.4094 64.7552 95.3579 65.7173C96.215 66.5867 97.4594 66.7684 98.5328 67.3171C98.671 67.3878 98.8543 67.475 99.052 67.5465C99.2602 67.7073 99.6732 67.8169 100.149 67.8169C100.648 67.8169 101.078 67.6963 101.275 67.5225C101.448 67.4561 101.607 67.38 101.73 67.3171C102.803 66.7683 104.048 66.5867 104.905 65.7173C105.853 64.7552 105.977 63.1754 106.095 61.9156C106.164 61.1852 106.11 60.4718 106.064 59.742C106.053 59.5624 105.964 57.634 105.863 57.634Z" fill="#005249"/>
<path fill-rule="evenodd" clip-rule="evenodd" d="M100.131 53.417C103.483 53.417 106.2 54.9367 106.2 56.8113C106.2 57.0766 106.145 57.3349 106.042 57.5827C105.418 56.0797 103.008 54.9598 100.131 54.9598C97.2541 54.9598 94.8446 56.0798 94.2202 57.5827C94.1172 57.3349 94.0627 57.0767 94.0627 56.8113C94.0627 54.9367 96.7797 53.417 100.131 53.417Z" fill="#007B55"/>
<path d="M100.337 47.8628C103.408 47.8628 108.763 52.4038 108.771 57.2561C108.776 59.8766 107.782 61.477 105.789 62.0571C106.418 56.3084 102.539 55.0025 100.128 53.6039C97.7156 55.0025 93.843 56.3084 94.4743 62.0571C92.4812 61.5427 91.4869 59.9424 91.4915 57.2561C91.4997 52.4038 96.8476 47.8628 99.9258 47.8628C99.9945 47.8628 100.063 47.8658 100.131 47.8718C100.199 47.8658 100.268 47.8628 100.337 47.8628Z" fill="#005249"/>
</g>
<path d="M3.00001 93.8743C2.99706 96.1053 3.43589 98.3147 4.29119 100.375C5.14648 102.436 6.40131 104.306 7.98328 105.88C8.11586 106.011 8.25144 106.141 8.38853 106.269C9.21462 107.041 10.1159 107.728 11.079 108.32C11.2639 108.434 11.4488 108.544 11.6384 108.65C12.6123 109.199 13.6385 109.65 14.7017 109.995C14.885 110.055 15.0715 110.112 15.2579 110.165C18.6376 111.134 22.2345 111.033 25.5543 109.875C25.619 109.852 25.6837 109.829 25.7469 109.806C28.6612 108.746 31.2288 106.906 33.1702 104.488C35.1116 102.07 36.3524 99.1651 36.7576 96.0906C37.1628 93.016 36.7168 89.8892 35.4681 87.0505C34.2195 84.2119 32.2161 81.7701 29.676 79.9911C27.1359 78.212 24.1564 77.1639 21.062 76.9607C17.9675 76.7576 14.8766 77.4072 12.1257 78.8389C9.37477 80.2705 7.06933 82.4294 5.46029 85.0805C3.85125 87.7315 3.00028 90.7732 3.00001 93.8743V93.8743Z" fill="#919EAB" fill-opacity="0.24"/>
<path d="M3.60011 93.8738C3.59726 96.0258 4.02054 98.1569 4.84553 100.144C5.67052 102.132 6.88089 103.936 8.40681 105.454C8.53469 105.58 8.66547 105.706 8.7977 105.83C9.59452 106.574 10.4639 107.237 11.3929 107.808C11.5712 107.918 11.7496 108.024 11.9324 108.126C12.8718 108.656 13.8616 109.09 14.8871 109.424C15.064 109.482 15.2438 109.537 15.4237 109.587C18.6836 110.522 22.153 110.424 25.3552 109.308C25.4177 109.285 25.4801 109.263 25.541 109.241C28.352 108.218 30.8287 106.444 32.7013 104.111C34.5739 101.779 35.7708 98.9772 36.1616 96.0116C36.5524 93.0459 36.1222 90.0299 34.9178 87.2918C33.7134 84.5538 31.781 82.1985 29.3309 80.4825C26.8808 78.7665 24.0069 77.7555 21.0221 77.5595C18.0372 77.3636 15.0558 77.9902 12.4024 79.3711C9.749 80.7521 7.52524 82.8345 5.97321 85.3916C4.42119 87.9487 3.60037 90.8826 3.60011 93.8738V93.8738Z" fill="#C8FACD"/>
<mask id="mask2_2969_8347" style="mask-type:alpha" maskUnits="userSpaceOnUse" x="3" y="77" width="34" height="34">
<path d="M3.60011 93.8738C3.59726 96.0258 4.02054 98.1569 4.84553 100.144C5.67052 102.132 6.88089 103.936 8.40681 105.454C8.53469 105.58 8.66547 105.706 8.7977 105.83C9.59452 106.574 10.4639 107.237 11.3929 107.808C11.5712 107.918 11.7496 108.024 11.9324 108.126C12.8718 108.656 13.8616 109.09 14.8871 109.424C15.064 109.482 15.2438 109.537 15.4237 109.587C18.6836 110.522 22.153 110.424 25.3552 109.308C25.4177 109.285 25.4801 109.263 25.541 109.241C28.352 108.218 30.8287 106.444 32.7013 104.111C34.5739 101.779 35.7708 98.9772 36.1616 96.0116C36.5524 93.0459 36.1222 90.0299 34.9178 87.2918C33.7134 84.5538 31.781 82.1985 29.3309 80.4825C26.8808 78.7665 24.0069 77.7555 21.0221 77.5595C18.0372 77.3636 15.0558 77.9902 12.4024 79.3711C9.749 80.7521 7.52524 82.8345 5.97321 85.3916C4.42119 87.9487 3.60037 90.8826 3.60011 93.8738V93.8738Z" fill="white"/>
</mask>
<g mask="url(#mask2_2969_8347)">
<path d="M20.1773 85.9028C23.3585 85.9028 25.9373 88.4817 25.9373 91.6628L25.9374 92.2971C26.5211 92.395 26.9659 92.9027 26.9659 93.5143V94.9543C26.9659 95.5768 26.505 96.0917 25.9058 96.1763C25.6933 98.2134 24.4189 99.9348 22.646 100.777L22.6459 102.669H23.0573C27.1474 102.669 30.463 105.984 30.463 110.074V111H9.8916V110.074C9.8916 105.984 13.2073 102.669 17.2973 102.669H17.7087L17.7087 100.777C15.9357 99.9348 14.6613 98.2135 14.4487 96.1763C13.8496 96.0917 13.3887 95.5768 13.3887 94.9543V93.5143C13.3887 92.9027 13.8336 92.395 14.4173 92.297L14.4173 91.6628C14.4173 88.4817 16.9962 85.9028 20.1773 85.9028Z" fill="#FBCDBE"/>
<path d="M15.1373 103.424C15.1373 105.099 17.4168 106.456 20.2287 106.456C23.0407 106.456 25.3202 105.099 25.3202 103.424C25.3202 103.284 25.3042 103.146 25.2733 103.011C28.2808 103.953 30.463 106.761 30.463 110.08V111H9.8916V110.08C9.8916 106.721 12.1276 103.884 15.1922 102.977C15.1561 103.123 15.1373 103.272 15.1373 103.424Z" fill="#5BE584"/>
<path opacity="0.24" d="M18.2352 97.539C18.344 98.5152 19.172 99.2744 20.1773 99.2744C21.1858 99.2744 22.0158 98.5106 22.1205 97.5299C22.1289 97.451 22.0408 97.3201 21.9303 97.3201C20.3984 97.3201 19.2247 97.3201 18.4377 97.3201C18.3266 97.3201 18.2243 97.4413 18.2352 97.539Z" fill="#005249"/>
<path opacity="0.24" fill-rule="evenodd" clip-rule="evenodd" d="M18.9429 95.5713C18.9429 96.0257 19.4955 96.3941 20.1772 96.3941C20.8588 96.3941 21.4114 96.0257 21.4114 95.5713" fill="#005249"/>
<path d="M17.5029 94.3371C17.8437 94.3371 18.12 94.0608 18.12 93.7199C18.12 93.3791 17.8437 93.1028 17.5029 93.1028C17.162 93.1028 16.8857 93.3791 16.8857 93.7199C16.8857 94.0608 17.162 94.3371 17.5029 94.3371Z" fill="#005249"/>
<path d="M22.8515 94.3371C23.1924 94.3371 23.4687 94.0608 23.4687 93.7199C23.4687 93.3791 23.1924 93.1028 22.8515 93.1028C22.5107 93.1028 22.2344 93.3791 22.2344 93.7199C22.2344 94.0608 22.5107 94.3371 22.8515 94.3371Z" fill="#005249"/>
<path d="M16.025 92.3992C16.4277 91.8326 17.5316 91.5149 18.4826 91.7484C18.5929 91.7755 18.7043 91.708 18.7314 91.5977C18.7585 91.4873 18.691 91.3759 18.5807 91.3488C17.4764 91.0776 16.198 91.4456 15.6897 92.1609C15.6238 92.2535 15.6456 92.3819 15.7382 92.4477C15.8308 92.5135 15.9592 92.4918 16.025 92.3992Z" fill="#005249"/>
<path d="M24.3295 92.3992C23.9268 91.8326 22.8228 91.5149 21.8719 91.7484C21.7616 91.7755 21.6502 91.708 21.6231 91.5977C21.596 91.4873 21.6635 91.3759 21.7738 91.3488C22.8781 91.0776 24.1565 91.4456 24.6648 92.1609C24.7306 92.2535 24.7089 92.3819 24.6163 92.4477C24.5237 92.5135 24.3953 92.4918 24.3295 92.3992Z" fill="#005249"/>
<mask id="mask3_2969_8347" style="mask-type:alpha" maskUnits="userSpaceOnUse" x="6" y="82" width="28" height="29">
<path d="M33.7544 82.2V111H30.4629V110.074C30.4629 105.984 27.1473 102.669 23.0572 102.669H22.6458L22.6459 100.777C24.449 99.9204 25.7365 98.1546 25.9158 96.072C26.51 95.9831 26.9658 95.4705 26.9658 94.8514V93.5142C26.9658 92.9027 26.521 92.395 25.9373 92.297L25.9372 91.6628C25.9372 90.8456 25.767 90.0681 25.4602 89.3639C24.4391 87.6514 15.7865 87.734 14.9017 89.347C14.5902 90.0557 14.4172 90.8391 14.4172 91.6628L14.4173 92.297C13.8335 92.3949 13.3887 92.9026 13.3887 93.5142V94.8514C13.3887 95.4705 13.8444 95.9831 14.4387 96.072C14.618 98.1546 15.9055 99.9205 17.7087 100.777L17.7087 102.669H17.2972C13.2481 102.669 9.95792 105.918 9.89252 109.952L9.89153 110.074V111H6.6001V82.2H33.7544Z" fill="white"/>
</mask>
<g mask="url(#mask3_2969_8347)">
<path fill-rule="evenodd" clip-rule="evenodd" d="M19.2704 82.4058H21.1871C23.12 82.4058 24.7922 83.7512 25.206 85.6392L26.143 89.9143H14.3145L15.2515 85.6392C15.6653 83.7512 17.3375 82.4058 19.2704 82.4058Z" fill="#005249"/>
<path d="M20.1772 97.1142C27.1076 97.1142 32.7258 94.4663 32.7258 91.1999C32.7258 87.9336 27.1076 85.2856 20.1772 85.2856C13.2468 85.2856 7.62866 87.9336 7.62866 91.1999C7.62866 94.4663 13.2468 97.1142 20.1772 97.1142Z" fill="#005249"/>
<path d="M20.1772 93.2056C23.6992 93.2056 26.5543 92.0543 26.5543 90.6342C26.5543 89.214 23.6992 88.0627 20.1772 88.0627C16.6552 88.0627 13.8 89.214 13.8 90.6342C13.8 92.0543 16.6552 93.2056 20.1772 93.2056Z" fill="#007B55"/>
</g>
<path opacity="0.7" d="M19.325 93.7715C19.325 94.7694 18.4764 95.5788 17.0624 95.5788H16.7795C15.3655 95.5788 14.7998 94.7691 14.7998 93.7715C14.7998 92.7732 14.9319 91.9641 16.9116 91.9641H17.2132C19.1929 91.9641 19.325 92.7732 19.325 93.7715Z" fill="#005249"/>
<path opacity="0.7" d="M25.6575 93.7715C25.6575 94.7694 24.8092 95.5788 23.3949 95.5788H23.1121C21.698 95.5788 21.1323 94.7691 21.1323 93.7715C21.1323 92.7732 21.2644 91.9641 23.2441 91.9641H23.5457C25.5251 91.9641 25.6575 92.7732 25.6575 93.7715Z" fill="#005249"/>
<path d="M17.213 91.6628C19.44 91.6628 19.6264 92.7045 19.6264 93.7714C19.6264 95.0128 18.5721 95.88 17.0622 95.88H16.7793C15.3509 95.88 14.498 95.0917 14.498 93.7714C14.498 92.7045 14.6844 91.6628 16.9114 91.6628H17.213ZM17.213 92.265H16.9114C15.1374 92.265 15.1019 92.9035 15.1012 93.7211L15.1012 93.7714C15.1012 94.4585 15.3922 95.2775 16.7793 95.2775H17.0622C18.2169 95.2775 19.0232 94.6582 19.0232 93.7714L19.0232 93.6962C19.0232 93.6879 19.0231 93.6796 19.0231 93.6713L19.0228 93.6219C19.0167 92.8524 18.9146 92.265 17.213 92.265Z" fill="#005249"/>
<path d="M23.5457 91.6628C25.7727 91.6628 25.9591 92.7045 25.9591 93.7714C25.9591 95.0128 24.9049 95.88 23.395 95.88H23.1121C21.6836 95.88 20.8308 95.0917 20.8308 93.7714C20.8308 92.7045 21.0172 91.6628 23.2442 91.6628H23.5457ZM23.5457 92.265H23.2442C21.4701 92.265 21.4347 92.9035 21.4339 93.7211L21.4339 93.7714C21.4339 94.4585 21.7252 95.2775 23.1121 95.2775H23.395C24.5496 95.2775 25.356 94.6582 25.356 93.7714L25.3559 93.6962C25.3559 93.6879 25.3559 93.6796 25.3559 93.6713L25.3556 93.6219C25.3495 92.8524 25.2474 92.265 23.5457 92.265Z" fill="#005249"/>
<path d="M13.896 92.2653C13.9666 92.1948 14.7386 91.6628 16.9116 91.6628C18.7336 91.6628 19.1193 91.8562 19.7032 92.1484L19.7459 92.17C19.7865 92.1847 19.994 92.2568 20.2368 92.2647C20.458 92.255 20.6472 92.1937 20.7025 92.174C21.3689 91.8426 22.0212 91.6628 23.5459 91.6628C25.7189 91.6628 26.4909 92.1948 26.5615 92.2653C26.7283 92.2653 26.8631 92.3999 26.8631 92.5665V92.8677C26.8631 93.0343 26.7283 93.169 26.5615 93.169C26.5615 93.169 25.9584 93.169 25.9584 93.4702C25.9584 93.7714 25.6568 93.0343 25.6568 92.8677V92.5744C25.289 92.4304 24.6307 92.2653 23.5459 92.2653C22.3373 92.2653 21.7354 92.3816 21.219 92.5993L21.2248 92.6135L20.9681 92.7171L21.2246 92.8208L20.9983 93.3793L20.7187 93.2662C20.6938 93.2561 20.6399 93.238 20.5652 93.2192C20.357 93.1667 20.1429 93.1507 19.9536 93.1904C19.8842 93.205 19.8197 93.2269 19.7606 93.2564L19.4909 93.3912L19.221 92.8524L19.4907 92.7176L19.4914 92.7173L19.233 92.6129L19.2413 92.5926C18.796 92.3804 18.3854 92.2653 16.9116 92.2653C15.8269 92.2653 15.1686 92.4303 14.8007 92.5743V92.8677C14.8007 93.0343 14.4992 93.7714 14.4992 93.4702C14.4992 93.169 13.896 93.169 13.896 93.169C13.7296 93.169 13.5945 93.0343 13.5945 92.8677V92.5665C13.5945 92.3999 13.7296 92.2653 13.896 92.2653Z" fill="#005249"/>
</g>
</svg>
